<?xml version="1.0" encoding="utf-8" standalone="no"?>
<!DOCTYPE svg PUBLIC "-//W3C//DTD SVG 1.1//EN"
  "http://www.w3.org/Graphics/SVG/1.1/DTD/svg11.dtd">
<!-- Created with matplotlib (https://matplotlib.org/) -->
<svg height="360pt" version="1.1" viewBox="0 0 504 360" width="504pt" xmlns="http://www.w3.org/2000/svg" xmlns:xlink="http://www.w3.org/1999/xlink">
 <metadata>
  <rdf:RDF xmlns:cc="http://creativecommons.org/ns#" xmlns:dc="http://purl.org/dc/elements/1.1/" xmlns:rdf="http://www.w3.org/1999/02/22-rdf-syntax-ns#">
   <cc:Work>
    <dc:type rdf:resource="http://purl.org/dc/dcmitype/StillImage"/>
    <dc:date>2021-02-09T22:08:56.661922</dc:date>
    <dc:format>image/svg+xml</dc:format>
    <dc:creator>
     <cc:Agent>
      <dc:title>Matplotlib v3.3.2, https://matplotlib.org/</dc:title>
     </cc:Agent>
    </dc:creator>
   </cc:Work>
  </rdf:RDF>
 </metadata>
 <defs>
  <style type="text/css">*{stroke-linecap:butt;stroke-linejoin:round;}</style>
 </defs>
 <g id="figure_1">
  <g id="patch_1">
   <path d="M 0 360 
L 504 360 
L 504 0 
L 0 0 
z
" style="fill:none;"/>
  </g>
  <g id="axes_1">
   <g id="patch_2">
    <path d="M 46.55 268.563235 
L 493.2 268.563235 
L 493.2 51.6 
L 46.55 51.6 
z
" style="fill:#ffffff;"/>
   </g>
   <g id="patch_3">
    <path clip-path="url(#pca8d347c2d)" d="M 66.852273 178.696572 
L 86.187771 178.696572 
L 86.187771 258.70127 
L 66.852273 258.70127 
z
" style="fill:#ffd700;stroke:#ffd700;stroke-linejoin:miter;"/>
   </g>
   <g id="patch_4">
    <path clip-path="url(#pca8d347c2d)" d="M 91.021645 178.696572 
L 110.357143 178.696572 
L 110.357143 255.136704 
L 91.021645 255.136704 
z
" style="fill:#ffd700;stroke:#ffd700;stroke-linejoin:miter;"/>
   </g>
   <g id="patch_5">
    <path clip-path="url(#pca8d347c2d)" d="M 115.191017 178.696572 
L 134.526515 178.696572 
L 134.526515 225.960074 
L 115.191017 225.960074 
z
" style="fill:#ffd700;stroke:#ffd700;stroke-linejoin:miter;"/>
   </g>
   <g id="patch_6">
    <path clip-path="url(#pca8d347c2d)" d="M 139.36039 178.696572 
L 158.695887 178.696572 
L 158.695887 219.227005 
L 139.36039 219.227005 
z
" style="fill:#1f77b4;"/>
   </g>
   <g id="patch_7">
    <path clip-path="url(#pca8d347c2d)" d="M 163.529762 178.696572 
L 182.86526 178.696572 
L 182.86526 214.606272 
L 163.529762 214.606272 
z
" style="fill:#1f77b4;"/>
   </g>
   <g id="patch_8">
    <path clip-path="url(#pca8d347c2d)" d="M 187.699134 178.696572 
L 207.034632 178.696572 
L 207.034632 195.199191 
L 187.699134 195.199191 
z
" style="fill:#1f77b4;"/>
   </g>
   <g id="patch_9">
    <path clip-path="url(#pca8d347c2d)" d="M 211.868506 178.696572 
L 231.204004 178.696572 
L 231.204004 183.449326 
L 211.868506 183.449326 
z
" style="fill:#1f77b4;"/>
   </g>
   <g id="patch_10">
    <path clip-path="url(#pca8d347c2d)" d="M 236.037879 178.696572 
L 255.373377 178.696572 
L 255.373377 179.092635 
L 236.037879 179.092635 
z
" style="fill:#1f77b4;"/>
   </g>
   <g id="patch_11">
    <path clip-path="url(#pca8d347c2d)" d="M 260.207251 178.696572 
L 279.542749 178.696572 
L 279.542749 162.193953 
L 260.207251 162.193953 
z
" style="fill:#1f77b4;"/>
   </g>
   <g id="patch_12">
    <path clip-path="url(#pca8d347c2d)" d="M 284.376623 178.696572 
L 303.712121 178.696572 
L 303.712121 156.913115 
L 284.376623 156.913115 
z
" style="fill:#1f77b4;"/>
   </g>
   <g id="patch_13">
    <path clip-path="url(#pca8d347c2d)" d="M 308.545996 178.696572 
L 327.881494 178.696572 
L 327.881494 124.567981 
L 308.545996 124.567981 
z
" style="fill:#1f77b4;"/>
   </g>
   <g id="patch_14">
    <path clip-path="url(#pca8d347c2d)" d="M 332.715368 178.696572 
L 352.050866 178.696572 
L 352.050866 109.12153 
L 332.715368 109.12153 
z
" style="fill:#1f77b4;"/>
   </g>
   <g id="patch_15">
    <path clip-path="url(#pca8d347c2d)" d="M 356.88474 178.696572 
L 376.220238 178.696572 
L 376.220238 98.823895 
L 356.88474 98.823895 
z
" style="fill:#1f77b4;"/>
   </g>
   <g id="patch_16">
    <path clip-path="url(#pca8d347c2d)" d="M 381.054113 178.696572 
L 400.38961 178.696572 
L 400.38961 97.239644 
L 381.054113 97.239644 
z
" style="fill:#1f77b4;"/>
   </g>
   <g id="patch_17">
    <path clip-path="url(#pca8d347c2d)" d="M 405.223485 178.696572 
L 424.558983 178.696572 
L 424.558983 95.655392 
L 405.223485 95.655392 
z
" style="fill:#1f77b4;"/>
   </g>
   <g id="patch_18">
    <path clip-path="url(#pca8d347c2d)" d="M 429.392857 178.696572 
L 448.728355 178.696572 
L 448.728355 83.509465 
L 429.392857 83.509465 
z
" style="fill:#1f77b4;"/>
   </g>
   <g id="patch_19">
    <path clip-path="url(#pca8d347c2d)" d="M 453.562229 178.696572 
L 472.897727 178.696572 
L 472.897727 61.461965 
L 453.562229 61.461965 
z
" style="fill:#1f77b4;"/>
   </g>
   <g id="matplotlib.axis_1">
    <g id="xtick_1">
     <g id="line2d_1">
      <defs>
       <path d="M 0 0 
L 0 3.5 
" id="mdfa729ae82" style="stroke:#000000;stroke-width:0.8;"/>
      </defs>
      <g>
       <use style="stroke:#000000;stroke-width:0.8;" x="76.520022" xlink:href="#mdfa729ae82" y="268.563235"/>
      </g>
     </g>
     <g id="text_1">
      <!-- Hawaiian -->
      <g transform="translate(65.952679 324.246927)rotate(-60)scale(0.1 -0.1)">
       <defs>
        <path d="M 9.1875 72.90625 
L 27.984375 72.90625 
L 27.984375 45.125 
L 55.71875 45.125 
L 55.71875 72.90625 
L 74.515625 72.90625 
L 74.515625 0 
L 55.71875 0 
L 55.71875 30.90625 
L 27.984375 30.90625 
L 27.984375 0 
L 9.1875 0 
z
" id="DejaVuSans-Bold-72"/>
        <path d="M 32.90625 24.609375 
Q 27.4375 24.609375 24.671875 22.75 
Q 21.921875 20.90625 21.921875 17.28125 
Q 21.921875 13.96875 24.140625 12.078125 
Q 26.375 10.203125 30.328125 10.203125 
Q 35.25 10.203125 38.625 13.734375 
Q 42 17.28125 42 22.609375 
L 42 24.609375 
z
M 59.625 31.203125 
L 59.625 0 
L 42 0 
L 42 8.109375 
Q 38.484375 3.125 34.078125 0.84375 
Q 29.6875 -1.421875 23.390625 -1.421875 
Q 14.890625 -1.421875 9.59375 3.53125 
Q 4.296875 8.5 4.296875 16.40625 
Q 4.296875 26.03125 10.90625 30.515625 
Q 17.53125 35.015625 31.6875 35.015625 
L 42 35.015625 
L 42 36.375 
Q 42 40.53125 38.71875 42.453125 
Q 35.453125 44.390625 28.515625 44.390625 
Q 22.90625 44.390625 18.0625 43.265625 
Q 13.234375 42.140625 9.078125 39.890625 
L 9.078125 53.21875 
Q 14.703125 54.59375 20.359375 55.296875 
Q 26.03125 56 31.6875 56 
Q 46.484375 56 53.046875 50.171875 
Q 59.625 44.34375 59.625 31.203125 
z
" id="DejaVuSans-Bold-97"/>
        <path d="M 3.515625 54.6875 
L 20.515625 54.6875 
L 29.6875 17 
L 38.921875 54.6875 
L 53.515625 54.6875 
L 62.703125 17.390625 
L 71.921875 54.6875 
L 88.921875 54.6875 
L 74.515625 0 
L 55.421875 0 
L 46.1875 37.59375 
L 37.015625 0 
L 17.921875 0 
z
" id="DejaVuSans-Bold-119"/>
        <path d="M 8.40625 54.6875 
L 25.875 54.6875 
L 25.875 0 
L 8.40625 0 
z
M 8.40625 75.984375 
L 25.875 75.984375 
L 25.875 61.71875 
L 8.40625 61.71875 
z
" id="DejaVuSans-Bold-105"/>
        <path d="M 63.375 33.296875 
L 63.375 0 
L 45.796875 0 
L 45.796875 5.421875 
L 45.796875 25.484375 
Q 45.796875 32.5625 45.484375 35.25 
Q 45.171875 37.9375 44.390625 39.203125 
Q 43.359375 40.921875 41.59375 41.875 
Q 39.84375 42.828125 37.59375 42.828125 
Q 32.125 42.828125 29 38.59375 
Q 25.875 34.375 25.875 26.90625 
L 25.875 0 
L 8.40625 0 
L 8.40625 54.6875 
L 25.875 54.6875 
L 25.875 46.6875 
Q 29.828125 51.46875 34.265625 53.734375 
Q 38.71875 56 44.09375 56 
Q 53.5625 56 58.46875 50.1875 
Q 63.375 44.390625 63.375 33.296875 
z
" id="DejaVuSans-Bold-110"/>
       </defs>
       <use xlink:href="#DejaVuSans-Bold-72"/>
       <use x="83.691406" xlink:href="#DejaVuSans-Bold-97"/>
       <use x="151.171875" xlink:href="#DejaVuSans-Bold-119"/>
       <use x="243.554688" xlink:href="#DejaVuSans-Bold-97"/>
       <use x="311.035156" xlink:href="#DejaVuSans-Bold-105"/>
       <use x="345.3125" xlink:href="#DejaVuSans-Bold-105"/>
       <use x="379.589844" xlink:href="#DejaVuSans-Bold-97"/>
       <use x="447.070312" xlink:href="#DejaVuSans-Bold-110"/>
      </g>
     </g>
    </g>
    <g id="xtick_2">
     <g id="line2d_2">
      <g>
       <use style="stroke:#000000;stroke-width:0.8;" x="100.689394" xlink:href="#mdfa729ae82" y="268.563235"/>
      </g>
     </g>
     <g id="text_2">
      <!-- Delta -->
      <g transform="translate(95.568927 305.378398)rotate(-60)scale(0.1 -0.1)">
       <defs>
        <path d="M 27.984375 58.6875 
L 27.984375 14.203125 
L 34.71875 14.203125 
Q 46.234375 14.203125 52.3125 19.921875 
Q 58.40625 25.640625 58.40625 36.53125 
Q 58.40625 47.359375 52.34375 53.015625 
Q 46.296875 58.6875 34.71875 58.6875 
z
M 9.1875 72.90625 
L 29 72.90625 
Q 45.609375 72.90625 53.734375 70.53125 
Q 61.859375 68.171875 67.671875 62.5 
Q 72.796875 57.5625 75.28125 51.109375 
Q 77.78125 44.671875 77.78125 36.53125 
Q 77.78125 28.265625 75.28125 21.796875 
Q 72.796875 15.328125 67.671875 10.40625 
Q 61.8125 4.734375 53.609375 2.359375 
Q 45.40625 0 29 0 
L 9.1875 0 
z
" id="DejaVuSans-Bold-68"/>
        <path d="M 62.984375 27.484375 
L 62.984375 22.515625 
L 22.125 22.515625 
Q 22.75 16.359375 26.5625 13.28125 
Q 30.375 10.203125 37.203125 10.203125 
Q 42.71875 10.203125 48.5 11.84375 
Q 54.296875 13.484375 60.40625 16.796875 
L 60.40625 3.328125 
Q 54.203125 0.984375 48 -0.21875 
Q 41.796875 -1.421875 35.59375 -1.421875 
Q 20.75 -1.421875 12.515625 6.125 
Q 4.296875 13.671875 4.296875 27.296875 
Q 4.296875 40.671875 12.375 48.328125 
Q 20.453125 56 34.625 56 
Q 47.515625 56 55.25 48.234375 
Q 62.984375 40.484375 62.984375 27.484375 
z
M 45.015625 33.296875 
Q 45.015625 38.28125 42.109375 41.328125 
Q 39.203125 44.390625 34.515625 44.390625 
Q 29.4375 44.390625 26.265625 41.53125 
Q 23.09375 38.671875 22.3125 33.296875 
z
" id="DejaVuSans-Bold-101"/>
        <path d="M 8.40625 75.984375 
L 25.875 75.984375 
L 25.875 0 
L 8.40625 0 
z
" id="DejaVuSans-Bold-108"/>
        <path d="M 27.484375 70.21875 
L 27.484375 54.6875 
L 45.515625 54.6875 
L 45.515625 42.1875 
L 27.484375 42.1875 
L 27.484375 19 
Q 27.484375 15.1875 29 13.84375 
Q 30.515625 12.5 35.015625 12.5 
L 44 12.5 
L 44 0 
L 29 0 
Q 18.65625 0 14.328125 4.3125 
Q 10.015625 8.640625 10.015625 19 
L 10.015625 42.1875 
L 1.3125 42.1875 
L 1.3125 54.6875 
L 10.015625 54.6875 
L 10.015625 70.21875 
z
" id="DejaVuSans-Bold-116"/>
       </defs>
       <use xlink:href="#DejaVuSans-Bold-68"/>
       <use x="83.007812" xlink:href="#DejaVuSans-Bold-101"/>
       <use x="150.830078" xlink:href="#DejaVuSans-Bold-108"/>
       <use x="185.107422" xlink:href="#DejaVuSans-Bold-116"/>
       <use x="232.910156" xlink:href="#DejaVuSans-Bold-97"/>
      </g>
     </g>
    </g>
    <g id="xtick_3">
     <g id="line2d_3">
      <g>
       <use style="stroke:#000000;stroke-width:0.8;" x="124.858766" xlink:href="#mdfa729ae82" y="268.563235"/>
      </g>
     </g>
     <g id="text_3">
      <!-- Southwest -->
      <g transform="translate(112.287908 331.187309)rotate(-60)scale(0.1 -0.1)">
       <defs>
        <path d="M 59.90625 70.609375 
L 59.90625 55.171875 
Q 53.90625 57.859375 48.1875 59.21875 
Q 42.484375 60.59375 37.40625 60.59375 
Q 30.671875 60.59375 27.4375 58.734375 
Q 24.21875 56.890625 24.21875 52.984375 
Q 24.21875 50.046875 26.390625 48.40625 
Q 28.5625 46.78125 34.28125 45.609375 
L 42.28125 44 
Q 54.4375 41.546875 59.5625 36.5625 
Q 64.703125 31.59375 64.703125 22.40625 
Q 64.703125 10.359375 57.546875 4.46875 
Q 50.390625 -1.421875 35.6875 -1.421875 
Q 28.765625 -1.421875 21.78125 -0.09375 
Q 14.796875 1.21875 7.8125 3.8125 
L 7.8125 19.671875 
Q 14.796875 15.96875 21.3125 14.078125 
Q 27.828125 12.203125 33.890625 12.203125 
Q 40.046875 12.203125 43.3125 14.25 
Q 46.578125 16.3125 46.578125 20.125 
Q 46.578125 23.53125 44.359375 25.390625 
Q 42.140625 27.25 35.5 28.71875 
L 28.21875 30.328125 
Q 17.28125 32.671875 12.21875 37.796875 
Q 7.171875 42.921875 7.171875 51.609375 
Q 7.171875 62.5 14.203125 68.359375 
Q 21.234375 74.21875 34.421875 74.21875 
Q 40.4375 74.21875 46.78125 73.3125 
Q 53.125 72.40625 59.90625 70.609375 
z
" id="DejaVuSans-Bold-83"/>
        <path d="M 34.421875 43.5 
Q 28.609375 43.5 25.5625 39.328125 
Q 22.515625 35.15625 22.515625 27.296875 
Q 22.515625 19.4375 25.5625 15.25 
Q 28.609375 11.078125 34.421875 11.078125 
Q 40.140625 11.078125 43.15625 15.25 
Q 46.1875 19.4375 46.1875 27.296875 
Q 46.1875 35.15625 43.15625 39.328125 
Q 40.140625 43.5 34.421875 43.5 
z
M 34.421875 56 
Q 48.53125 56 56.46875 48.375 
Q 64.40625 40.765625 64.40625 27.296875 
Q 64.40625 13.8125 56.46875 6.1875 
Q 48.53125 -1.421875 34.421875 -1.421875 
Q 20.265625 -1.421875 12.28125 6.1875 
Q 4.296875 13.8125 4.296875 27.296875 
Q 4.296875 40.765625 12.28125 48.375 
Q 20.265625 56 34.421875 56 
z
" id="DejaVuSans-Bold-111"/>
        <path d="M 7.8125 21.296875 
L 7.8125 54.6875 
L 25.390625 54.6875 
L 25.390625 49.21875 
Q 25.390625 44.78125 25.34375 38.0625 
Q 25.296875 31.34375 25.296875 29.109375 
Q 25.296875 22.515625 25.640625 19.609375 
Q 25.984375 16.703125 26.8125 15.375 
Q 27.875 13.671875 29.609375 12.734375 
Q 31.34375 11.8125 33.59375 11.8125 
Q 39.0625 11.8125 42.1875 16.015625 
Q 45.3125 20.21875 45.3125 27.6875 
L 45.3125 54.6875 
L 62.796875 54.6875 
L 62.796875 0 
L 45.3125 0 
L 45.3125 7.90625 
Q 41.359375 3.125 36.9375 0.84375 
Q 32.515625 -1.421875 27.203125 -1.421875 
Q 17.71875 -1.421875 12.765625 4.390625 
Q 7.8125 10.203125 7.8125 21.296875 
z
" id="DejaVuSans-Bold-117"/>
        <path d="M 63.375 33.296875 
L 63.375 0 
L 45.796875 0 
L 45.796875 5.421875 
L 45.796875 25.390625 
Q 45.796875 32.5625 45.484375 35.25 
Q 45.171875 37.9375 44.390625 39.203125 
Q 43.359375 40.921875 41.59375 41.875 
Q 39.84375 42.828125 37.59375 42.828125 
Q 32.125 42.828125 29 38.59375 
Q 25.875 34.375 25.875 26.90625 
L 25.875 0 
L 8.40625 0 
L 8.40625 75.984375 
L 25.875 75.984375 
L 25.875 46.6875 
Q 29.828125 51.46875 34.265625 53.734375 
Q 38.71875 56 44.09375 56 
Q 53.5625 56 58.46875 50.1875 
Q 63.375 44.390625 63.375 33.296875 
z
" id="DejaVuSans-Bold-104"/>
        <path d="M 51.125 52.984375 
L 51.125 39.703125 
Q 45.515625 42.046875 40.28125 43.21875 
Q 35.0625 44.390625 30.421875 44.390625 
Q 25.4375 44.390625 23.015625 43.140625 
Q 20.609375 41.890625 20.609375 39.3125 
Q 20.609375 37.203125 22.4375 36.078125 
Q 24.265625 34.96875 29 34.421875 
L 32.078125 33.984375 
Q 45.515625 32.28125 50.140625 28.375 
Q 54.78125 24.46875 54.78125 16.109375 
Q 54.78125 7.375 48.328125 2.96875 
Q 41.890625 -1.421875 29.109375 -1.421875 
Q 23.6875 -1.421875 17.890625 -0.5625 
Q 12.109375 0.296875 6 2 
L 6 15.28125 
Q 11.234375 12.75 16.71875 11.46875 
Q 22.21875 10.203125 27.875 10.203125 
Q 33.015625 10.203125 35.59375 11.609375 
Q 38.1875 13.03125 38.1875 15.828125 
Q 38.1875 18.171875 36.40625 19.3125 
Q 34.625 20.453125 29.296875 21.09375 
L 26.21875 21.484375 
Q 14.546875 22.953125 9.859375 26.90625 
Q 5.171875 30.859375 5.171875 38.921875 
Q 5.171875 47.609375 11.125 51.796875 
Q 17.09375 56 29.390625 56 
Q 34.234375 56 39.546875 55.265625 
Q 44.875 54.546875 51.125 52.984375 
z
" id="DejaVuSans-Bold-115"/>
       </defs>
       <use xlink:href="#DejaVuSans-Bold-83"/>
       <use x="72.021484" xlink:href="#DejaVuSans-Bold-111"/>
       <use x="140.722656" xlink:href="#DejaVuSans-Bold-117"/>
       <use x="211.914062" xlink:href="#DejaVuSans-Bold-116"/>
       <use x="259.716797" xlink:href="#DejaVuSans-Bold-104"/>
       <use x="330.908203" xlink:href="#DejaVuSans-Bold-119"/>
       <use x="423.291016" xlink:href="#DejaVuSans-Bold-101"/>
       <use x="491.113281" xlink:href="#DejaVuSans-Bold-115"/>
       <use x="550.634766" xlink:href="#DejaVuSans-Bold-116"/>
      </g>
     </g>
    </g>
    <g id="xtick_4">
     <g id="line2d_4">
      <g>
       <use style="stroke:#000000;stroke-width:0.8;" x="149.028139" xlink:href="#mdfa729ae82" y="268.563235"/>
      </g>
     </g>
     <g id="text_4">
      <!-- PSA -->
      <g transform="translate(145.850249 298.64911)rotate(-60)scale(0.1 -0.1)">
       <defs>
        <path d="M 9.1875 72.90625 
L 40.375 72.90625 
Q 54.296875 72.90625 61.734375 66.71875 
Q 69.1875 60.546875 69.1875 49.125 
Q 69.1875 37.640625 61.734375 31.46875 
Q 54.296875 25.296875 40.375 25.296875 
L 27.984375 25.296875 
L 27.984375 0 
L 9.1875 0 
z
M 27.984375 59.28125 
L 27.984375 38.921875 
L 38.375 38.921875 
Q 43.84375 38.921875 46.828125 41.578125 
Q 49.8125 44.234375 49.8125 49.125 
Q 49.8125 54 46.828125 56.640625 
Q 43.84375 59.28125 38.375 59.28125 
z
" id="DejaVuSans-Bold-80"/>
        <path d="M 53.421875 13.28125 
L 24.03125 13.28125 
L 19.390625 0 
L 0.484375 0 
L 27.484375 72.90625 
L 49.90625 72.90625 
L 76.90625 0 
L 58.015625 0 
z
M 28.71875 26.8125 
L 48.6875 26.8125 
L 38.71875 55.8125 
z
" id="DejaVuSans-Bold-65"/>
       </defs>
       <use xlink:href="#DejaVuSans-Bold-80"/>
       <use x="73.291016" xlink:href="#DejaVuSans-Bold-83"/>
       <use x="145.3125" xlink:href="#DejaVuSans-Bold-65"/>
      </g>
     </g>
    </g>
    <g id="xtick_5">
     <g id="line2d_5">
      <g>
       <use style="stroke:#000000;stroke-width:0.8;" x="173.197511" xlink:href="#mdfa729ae82" y="268.563235"/>
      </g>
     </g>
     <g id="text_5">
      <!-- Spirit -->
      <g transform="translate(167.855559 306.145643)rotate(-60)scale(0.1 -0.1)">
       <defs>
        <path d="M 25.875 7.90625 
L 25.875 -20.796875 
L 8.40625 -20.796875 
L 8.40625 54.6875 
L 25.875 54.6875 
L 25.875 46.6875 
Q 29.5 51.46875 33.890625 53.734375 
Q 38.28125 56 44 56 
Q 54.109375 56 60.59375 47.96875 
Q 67.09375 39.9375 67.09375 27.296875 
Q 67.09375 14.65625 60.59375 6.609375 
Q 54.109375 -1.421875 44 -1.421875 
Q 38.28125 -1.421875 33.890625 0.84375 
Q 29.5 3.125 25.875 7.90625 
z
M 37.5 43.3125 
Q 31.890625 43.3125 28.875 39.1875 
Q 25.875 35.0625 25.875 27.296875 
Q 25.875 19.53125 28.875 15.40625 
Q 31.890625 11.28125 37.5 11.28125 
Q 43.109375 11.28125 46.0625 15.375 
Q 49.03125 19.484375 49.03125 27.296875 
Q 49.03125 35.109375 46.0625 39.203125 
Q 43.109375 43.3125 37.5 43.3125 
z
" id="DejaVuSans-Bold-112"/>
        <path d="M 49.03125 39.796875 
Q 46.734375 40.875 44.453125 41.375 
Q 42.1875 41.890625 39.890625 41.890625 
Q 33.15625 41.890625 29.515625 37.5625 
Q 25.875 33.25 25.875 25.203125 
L 25.875 0 
L 8.40625 0 
L 8.40625 54.6875 
L 25.875 54.6875 
L 25.875 45.703125 
Q 29.25 51.078125 33.609375 53.53125 
Q 37.984375 56 44.09375 56 
Q 44.96875 56 45.984375 55.921875 
Q 47.015625 55.859375 48.96875 55.609375 
z
" id="DejaVuSans-Bold-114"/>
       </defs>
       <use xlink:href="#DejaVuSans-Bold-83"/>
       <use x="72.021484" xlink:href="#DejaVuSans-Bold-112"/>
       <use x="143.603516" xlink:href="#DejaVuSans-Bold-105"/>
       <use x="177.880859" xlink:href="#DejaVuSans-Bold-114"/>
       <use x="227.197266" xlink:href="#DejaVuSans-Bold-105"/>
       <use x="261.474609" xlink:href="#DejaVuSans-Bold-116"/>
      </g>
     </g>
    </g>
    <g id="xtick_6">
     <g id="line2d_6">
      <g>
       <use style="stroke:#000000;stroke-width:0.8;" x="197.366883" xlink:href="#mdfa729ae82" y="268.563235"/>
      </g>
     </g>
     <g id="text_6">
      <!-- Alaska -->
      <g transform="translate(190.440166 311.635432)rotate(-60)scale(0.1 -0.1)">
       <defs>
        <path d="M 8.40625 75.984375 
L 25.875 75.984375 
L 25.875 34.625 
L 46 54.6875 
L 66.3125 54.6875 
L 39.59375 29.59375 
L 68.40625 0 
L 47.21875 0 
L 25.875 22.796875 
L 25.875 0 
L 8.40625 0 
z
" id="DejaVuSans-Bold-107"/>
       </defs>
       <use xlink:href="#DejaVuSans-Bold-65"/>
       <use x="77.392578" xlink:href="#DejaVuSans-Bold-108"/>
       <use x="111.669922" xlink:href="#DejaVuSans-Bold-97"/>
       <use x="179.150391" xlink:href="#DejaVuSans-Bold-115"/>
       <use x="238.671875" xlink:href="#DejaVuSans-Bold-107"/>
       <use x="305.175781" xlink:href="#DejaVuSans-Bold-97"/>
      </g>
     </g>
    </g>
    <g id="xtick_7">
     <g id="line2d_7">
      <g>
       <use style="stroke:#000000;stroke-width:0.8;" x="221.536255" xlink:href="#mdfa729ae82" y="268.563235"/>
      </g>
     </g>
     <g id="text_7">
      <!-- American -->
      <g transform="translate(210.651726 325.345697)rotate(-60)scale(0.1 -0.1)">
       <defs>
        <path d="M 59.078125 45.609375 
Q 62.40625 50.6875 66.96875 53.34375 
Q 71.53125 56 77 56 
Q 86.421875 56 91.359375 50.1875 
Q 96.296875 44.390625 96.296875 33.296875 
L 96.296875 0 
L 78.71875 0 
L 78.71875 28.515625 
Q 78.765625 29.15625 78.78125 29.828125 
Q 78.8125 30.515625 78.8125 31.78125 
Q 78.8125 37.59375 77.09375 40.203125 
Q 75.390625 42.828125 71.578125 42.828125 
Q 66.609375 42.828125 63.890625 38.71875 
Q 61.1875 34.625 61.078125 26.859375 
L 61.078125 0 
L 43.5 0 
L 43.5 28.515625 
Q 43.5 37.59375 41.9375 40.203125 
Q 40.375 42.828125 36.375 42.828125 
Q 31.34375 42.828125 28.609375 38.703125 
Q 25.875 34.578125 25.875 26.90625 
L 25.875 0 
L 8.296875 0 
L 8.296875 54.6875 
L 25.875 54.6875 
L 25.875 46.6875 
Q 29.109375 51.3125 33.28125 53.65625 
Q 37.453125 56 42.484375 56 
Q 48.140625 56 52.484375 53.265625 
Q 56.84375 50.53125 59.078125 45.609375 
z
" id="DejaVuSans-Bold-109"/>
        <path d="M 52.59375 52.984375 
L 52.59375 38.71875 
Q 49.03125 41.15625 45.4375 42.328125 
Q 41.84375 43.5 37.984375 43.5 
Q 30.671875 43.5 26.59375 39.234375 
Q 22.515625 34.96875 22.515625 27.296875 
Q 22.515625 19.625 26.59375 15.34375 
Q 30.671875 11.078125 37.984375 11.078125 
Q 42.09375 11.078125 45.78125 12.296875 
Q 49.46875 13.53125 52.59375 15.921875 
L 52.59375 1.609375 
Q 48.484375 0.09375 44.265625 -0.65625 
Q 40.046875 -1.421875 35.796875 -1.421875 
Q 21 -1.421875 12.640625 6.171875 
Q 4.296875 13.765625 4.296875 27.296875 
Q 4.296875 40.828125 12.640625 48.40625 
Q 21 56 35.796875 56 
Q 40.09375 56 44.265625 55.25 
Q 48.4375 54.5 52.59375 52.984375 
z
" id="DejaVuSans-Bold-99"/>
       </defs>
       <use xlink:href="#DejaVuSans-Bold-65"/>
       <use x="77.392578" xlink:href="#DejaVuSans-Bold-109"/>
       <use x="181.591797" xlink:href="#DejaVuSans-Bold-101"/>
       <use x="249.414062" xlink:href="#DejaVuSans-Bold-114"/>
       <use x="298.730469" xlink:href="#DejaVuSans-Bold-105"/>
       <use x="333.007812" xlink:href="#DejaVuSans-Bold-99"/>
       <use x="392.285156" xlink:href="#DejaVuSans-Bold-97"/>
       <use x="459.765625" xlink:href="#DejaVuSans-Bold-110"/>
      </g>
     </g>
    </g>
    <g id="xtick_8">
     <g id="line2d_8">
      <g>
       <use style="stroke:#000000;stroke-width:0.8;" x="245.705628" xlink:href="#mdfa729ae82" y="268.563235"/>
      </g>
     </g>
     <g id="text_8">
      <!-- Mesa -->
      <g transform="translate(240.736723 304.853371)rotate(-60)scale(0.1 -0.1)">
       <defs>
        <path d="M 9.1875 72.90625 
L 33.109375 72.90625 
L 49.703125 33.890625 
L 66.40625 72.90625 
L 90.28125 72.90625 
L 90.28125 0 
L 72.515625 0 
L 72.515625 53.328125 
L 55.71875 14.015625 
L 43.796875 14.015625 
L 27 53.328125 
L 27 0 
L 9.1875 0 
z
" id="DejaVuSans-Bold-77"/>
       </defs>
       <use xlink:href="#DejaVuSans-Bold-77"/>
       <use x="99.511719" xlink:href="#DejaVuSans-Bold-101"/>
       <use x="167.333984" xlink:href="#DejaVuSans-Bold-115"/>
       <use x="226.855469" xlink:href="#DejaVuSans-Bold-97"/>
      </g>
     </g>
    </g>
    <g id="xtick_9">
     <g id="line2d_9">
      <g>
       <use style="stroke:#000000;stroke-width:0.8;" x="269.875" xlink:href="#mdfa729ae82" y="268.563235"/>
      </g>
     </g>
     <g id="text_9">
      <!-- United -->
      <g transform="translate(262.917814 311.740979)rotate(-60)scale(0.1 -0.1)">
       <defs>
        <path d="M 9.1875 72.90625 
L 27.984375 72.90625 
L 27.984375 29.203125 
Q 27.984375 20.171875 30.9375 16.28125 
Q 33.890625 12.40625 40.578125 12.40625 
Q 47.3125 12.40625 50.265625 16.28125 
Q 53.21875 20.171875 53.21875 29.203125 
L 53.21875 72.90625 
L 72.015625 72.90625 
L 72.015625 29.203125 
Q 72.015625 13.71875 64.25 6.140625 
Q 56.5 -1.421875 40.578125 -1.421875 
Q 24.703125 -1.421875 16.9375 6.140625 
Q 9.1875 13.71875 9.1875 29.203125 
z
" id="DejaVuSans-Bold-85"/>
        <path d="M 45.609375 46.6875 
L 45.609375 75.984375 
L 63.1875 75.984375 
L 63.1875 0 
L 45.609375 0 
L 45.609375 7.90625 
Q 42 3.078125 37.640625 0.828125 
Q 33.296875 -1.421875 27.59375 -1.421875 
Q 17.484375 -1.421875 10.984375 6.609375 
Q 4.5 14.65625 4.5 27.296875 
Q 4.5 39.9375 10.984375 47.96875 
Q 17.484375 56 27.59375 56 
Q 33.25 56 37.625 53.734375 
Q 42 51.46875 45.609375 46.6875 
z
M 34.078125 11.28125 
Q 39.703125 11.28125 42.65625 15.375 
Q 45.609375 19.484375 45.609375 27.296875 
Q 45.609375 35.109375 42.65625 39.203125 
Q 39.703125 43.3125 34.078125 43.3125 
Q 28.515625 43.3125 25.5625 39.203125 
Q 22.609375 35.109375 22.609375 27.296875 
Q 22.609375 19.484375 25.5625 15.375 
Q 28.515625 11.28125 34.078125 11.28125 
z
" id="DejaVuSans-Bold-100"/>
       </defs>
       <use xlink:href="#DejaVuSans-Bold-85"/>
       <use x="81.201172" xlink:href="#DejaVuSans-Bold-110"/>
       <use x="152.392578" xlink:href="#DejaVuSans-Bold-105"/>
       <use x="186.669922" xlink:href="#DejaVuSans-Bold-116"/>
       <use x="234.472656" xlink:href="#DejaVuSans-Bold-101"/>
       <use x="302.294922" xlink:href="#DejaVuSans-Bold-100"/>
      </g>
     </g>
    </g>
    <g id="xtick_10">
     <g id="line2d_10">
      <g>
       <use style="stroke:#000000;stroke-width:0.8;" x="294.044372" xlink:href="#mdfa729ae82" y="268.563235"/>
      </g>
     </g>
     <g id="text_10">
      <!-- Endeavor -->
      <g transform="translate(283.194217 325.226618)rotate(-60)scale(0.1 -0.1)">
       <defs>
        <path d="M 9.1875 72.90625 
L 59.90625 72.90625 
L 59.90625 58.6875 
L 27.984375 58.6875 
L 27.984375 45.125 
L 58.015625 45.125 
L 58.015625 30.90625 
L 27.984375 30.90625 
L 27.984375 14.203125 
L 60.984375 14.203125 
L 60.984375 0 
L 9.1875 0 
z
" id="DejaVuSans-Bold-69"/>
        <path d="M 1.515625 54.6875 
L 19 54.6875 
L 32.625 16.890625 
L 46.1875 54.6875 
L 63.71875 54.6875 
L 42.1875 0 
L 23 0 
z
" id="DejaVuSans-Bold-118"/>
       </defs>
       <use xlink:href="#DejaVuSans-Bold-69"/>
       <use x="68.310547" xlink:href="#DejaVuSans-Bold-110"/>
       <use x="139.501953" xlink:href="#DejaVuSans-Bold-100"/>
       <use x="211.083984" xlink:href="#DejaVuSans-Bold-101"/>
       <use x="278.90625" xlink:href="#DejaVuSans-Bold-97"/>
       <use x="346.386719" xlink:href="#DejaVuSans-Bold-118"/>
       <use x="411.572266" xlink:href="#DejaVuSans-Bold-111"/>
       <use x="480.273438" xlink:href="#DejaVuSans-Bold-114"/>
      </g>
     </g>
    </g>
    <g id="xtick_11">
     <g id="line2d_11">
      <g>
       <use style="stroke:#000000;stroke-width:0.8;" x="318.213745" xlink:href="#mdfa729ae82" y="268.563235"/>
      </g>
     </g>
     <g id="text_11">
      <!-- SkyWest -->
      <g transform="translate(308.431714 321.409341)rotate(-60)scale(0.1 -0.1)">
       <defs>
        <path d="M 1.21875 54.6875 
L 18.703125 54.6875 
L 33.40625 17.578125 
L 45.90625 54.6875 
L 63.375 54.6875 
L 40.375 -5.171875 
Q 36.921875 -14.3125 32.296875 -17.9375 
Q 27.6875 -21.578125 20.125 -21.578125 
L 10.015625 -21.578125 
L 10.015625 -10.109375 
L 15.484375 -10.109375 
Q 19.921875 -10.109375 21.9375 -8.6875 
Q 23.96875 -7.28125 25.09375 -3.609375 
L 25.59375 -2.09375 
z
" id="DejaVuSans-Bold-121"/>
        <path d="M 2.984375 72.90625 
L 21 72.90625 
L 33.59375 19.921875 
L 46.09375 72.90625 
L 64.203125 72.90625 
L 76.703125 19.921875 
L 89.3125 72.90625 
L 107.171875 72.90625 
L 89.984375 0 
L 68.3125 0 
L 55.078125 55.421875 
L 42 0 
L 20.3125 0 
z
" id="DejaVuSans-Bold-87"/>
       </defs>
       <use xlink:href="#DejaVuSans-Bold-83"/>
       <use x="72.021484" xlink:href="#DejaVuSans-Bold-107"/>
       <use x="138.525391" xlink:href="#DejaVuSans-Bold-121"/>
       <use x="203.710938" xlink:href="#DejaVuSans-Bold-87"/>
       <use x="310.388672" xlink:href="#DejaVuSans-Bold-101"/>
       <use x="378.210938" xlink:href="#DejaVuSans-Bold-115"/>
       <use x="437.732422" xlink:href="#DejaVuSans-Bold-116"/>
      </g>
     </g>
    </g>
    <g id="xtick_12">
     <g id="line2d_12">
      <g>
       <use style="stroke:#000000;stroke-width:0.8;" x="342.383117" xlink:href="#mdfa729ae82" y="268.563235"/>
      </g>
     </g>
     <g id="text_12">
      <!-- Republic -->
      <g transform="translate(332.597415 321.539244)rotate(-60)scale(0.1 -0.1)">
       <defs>
        <path d="M 35.890625 40.578125 
Q 41.796875 40.578125 44.359375 42.765625 
Q 46.921875 44.96875 46.921875 50 
Q 46.921875 54.984375 44.359375 57.125 
Q 41.796875 59.28125 35.890625 59.28125 
L 27.984375 59.28125 
L 27.984375 40.578125 
z
M 27.984375 27.59375 
L 27.984375 0 
L 9.1875 0 
L 9.1875 72.90625 
L 37.890625 72.90625 
Q 52.296875 72.90625 59 68.0625 
Q 65.71875 63.234375 65.71875 52.78125 
Q 65.71875 45.5625 62.21875 40.921875 
Q 58.734375 36.28125 51.703125 34.078125 
Q 55.5625 33.203125 58.609375 30.09375 
Q 61.671875 27 64.796875 20.703125 
L 75 0 
L 54.984375 0 
L 46.09375 18.109375 
Q 43.40625 23.578125 40.640625 25.578125 
Q 37.890625 27.59375 33.296875 27.59375 
z
" id="DejaVuSans-Bold-82"/>
        <path d="M 37.5 11.28125 
Q 43.109375 11.28125 46.0625 15.375 
Q 49.03125 19.484375 49.03125 27.296875 
Q 49.03125 35.109375 46.0625 39.203125 
Q 43.109375 43.3125 37.5 43.3125 
Q 31.890625 43.3125 28.875 39.1875 
Q 25.875 35.0625 25.875 27.296875 
Q 25.875 19.53125 28.875 15.40625 
Q 31.890625 11.28125 37.5 11.28125 
z
M 25.875 46.6875 
Q 29.5 51.46875 33.890625 53.734375 
Q 38.28125 56 44 56 
Q 54.109375 56 60.59375 47.96875 
Q 67.09375 39.9375 67.09375 27.296875 
Q 67.09375 14.65625 60.59375 6.609375 
Q 54.109375 -1.421875 44 -1.421875 
Q 38.28125 -1.421875 33.890625 0.84375 
Q 29.5 3.125 25.875 7.90625 
L 25.875 0 
L 8.40625 0 
L 8.40625 75.984375 
L 25.875 75.984375 
z
" id="DejaVuSans-Bold-98"/>
       </defs>
       <use xlink:href="#DejaVuSans-Bold-82"/>
       <use x="77.001953" xlink:href="#DejaVuSans-Bold-101"/>
       <use x="144.824219" xlink:href="#DejaVuSans-Bold-112"/>
       <use x="216.40625" xlink:href="#DejaVuSans-Bold-117"/>
       <use x="287.597656" xlink:href="#DejaVuSans-Bold-98"/>
       <use x="359.179688" xlink:href="#DejaVuSans-Bold-108"/>
       <use x="393.457031" xlink:href="#DejaVuSans-Bold-105"/>
       <use x="427.734375" xlink:href="#DejaVuSans-Bold-99"/>
      </g>
     </g>
    </g>
    <g id="xtick_13">
     <g id="line2d_13">
      <g>
       <use style="stroke:#000000;stroke-width:0.8;" x="366.552489" xlink:href="#mdfa729ae82" y="268.563235"/>
      </g>
     </g>
     <g id="text_13">
      <!-- Envoy -->
      <g transform="translate(360.410067 308.645117)rotate(-60)scale(0.1 -0.1)">
       <use xlink:href="#DejaVuSans-Bold-69"/>
       <use x="68.310547" xlink:href="#DejaVuSans-Bold-110"/>
       <use x="139.501953" xlink:href="#DejaVuSans-Bold-118"/>
       <use x="204.6875" xlink:href="#DejaVuSans-Bold-111"/>
       <use x="273.388672" xlink:href="#DejaVuSans-Bold-121"/>
      </g>
     </g>
    </g>
    <g id="xtick_14">
     <g id="line2d_14">
      <g>
       <use style="stroke:#000000;stroke-width:0.8;" x="390.721861" xlink:href="#mdfa729ae82" y="268.563235"/>
      </g>
     </g>
     <g id="text_14">
      <!-- ExpressJet -->
      <g transform="translate(378.276785 330.75159)rotate(-60)scale(0.1 -0.1)">
       <defs>
        <path d="M 22.21875 27.984375 
L 2.484375 54.6875 
L 21 54.6875 
L 32.171875 38.484375 
L 43.5 54.6875 
L 62.015625 54.6875 
L 42.28125 28.078125 
L 62.984375 0 
L 44.484375 0 
L 32.171875 17.28125 
L 20.015625 0 
L 1.515625 0 
z
" id="DejaVuSans-Bold-120"/>
        <path d="M 9.1875 72.90625 
L 27.984375 72.90625 
L 27.984375 7.078125 
Q 27.984375 -6.546875 20.578125 -13.28125 
Q 13.1875 -20.015625 -1.8125 -20.015625 
L -5.609375 -20.015625 
L -5.609375 -5.8125 
L -2.6875 -5.8125 
Q 3.171875 -5.8125 6.171875 -2.53125 
Q 9.1875 0.734375 9.1875 7.078125 
z
" id="DejaVuSans-Bold-74"/>
       </defs>
       <use xlink:href="#DejaVuSans-Bold-69"/>
       <use x="68.310547" xlink:href="#DejaVuSans-Bold-120"/>
       <use x="132.8125" xlink:href="#DejaVuSans-Bold-112"/>
       <use x="204.394531" xlink:href="#DejaVuSans-Bold-114"/>
       <use x="253.710938" xlink:href="#DejaVuSans-Bold-101"/>
       <use x="321.533203" xlink:href="#DejaVuSans-Bold-115"/>
       <use x="381.054688" xlink:href="#DejaVuSans-Bold-115"/>
       <use x="440.576172" xlink:href="#DejaVuSans-Bold-74"/>
       <use x="477.783203" xlink:href="#DejaVuSans-Bold-101"/>
       <use x="545.605469" xlink:href="#DejaVuSans-Bold-116"/>
      </g>
     </g>
    </g>
    <g id="xtick_15">
     <g id="line2d_15">
      <g>
       <use style="stroke:#000000;stroke-width:0.8;" x="414.891234" xlink:href="#mdfa729ae82" y="268.563235"/>
      </g>
     </g>
     <g id="text_15">
      <!-- Frontier -->
      <g transform="translate(406.021938 318.36472)rotate(-60)scale(0.1 -0.1)">
       <defs>
        <path d="M 9.1875 72.90625 
L 59.90625 72.90625 
L 59.90625 58.6875 
L 27.984375 58.6875 
L 27.984375 45.125 
L 58.015625 45.125 
L 58.015625 30.90625 
L 27.984375 30.90625 
L 27.984375 0 
L 9.1875 0 
z
" id="DejaVuSans-Bold-70"/>
       </defs>
       <use xlink:href="#DejaVuSans-Bold-70"/>
       <use x="61.935547" xlink:href="#DejaVuSans-Bold-114"/>
       <use x="111.251953" xlink:href="#DejaVuSans-Bold-111"/>
       <use x="179.953125" xlink:href="#DejaVuSans-Bold-110"/>
       <use x="251.144531" xlink:href="#DejaVuSans-Bold-116"/>
       <use x="298.947266" xlink:href="#DejaVuSans-Bold-105"/>
       <use x="333.224609" xlink:href="#DejaVuSans-Bold-101"/>
       <use x="401.046875" xlink:href="#DejaVuSans-Bold-114"/>
      </g>
     </g>
    </g>
    <g id="xtick_16">
     <g id="line2d_16">
      <g>
       <use style="stroke:#000000;stroke-width:0.8;" x="439.060606" xlink:href="#mdfa729ae82" y="268.563235"/>
      </g>
     </g>
     <g id="text_16">
      <!-- Allegiant -->
      <g transform="translate(428.763731 323.192812)rotate(-60)scale(0.1 -0.1)">
       <defs>
        <path d="M 45.609375 9.28125 
Q 42 4.5 37.640625 2.25 
Q 33.296875 0 27.59375 0 
Q 17.578125 0 11.03125 7.875 
Q 4.5 15.765625 4.5 27.984375 
Q 4.5 40.234375 11.03125 48.0625 
Q 17.578125 55.90625 27.59375 55.90625 
Q 33.296875 55.90625 37.640625 53.65625 
Q 42 51.421875 45.609375 46.578125 
L 45.609375 54.6875 
L 63.1875 54.6875 
L 63.1875 5.515625 
Q 63.1875 -7.671875 54.859375 -14.625 
Q 46.53125 -21.578125 30.71875 -21.578125 
Q 25.59375 -21.578125 20.796875 -20.796875 
Q 16.015625 -20.015625 11.1875 -18.40625 
L 11.1875 -4.78125 
Q 15.765625 -7.421875 20.15625 -8.71875 
Q 24.5625 -10.015625 29 -10.015625 
Q 37.59375 -10.015625 41.59375 -6.25 
Q 45.609375 -2.484375 45.609375 5.515625 
z
M 34.078125 43.3125 
Q 28.65625 43.3125 25.625 39.296875 
Q 22.609375 35.296875 22.609375 27.984375 
Q 22.609375 20.453125 25.53125 16.578125 
Q 28.46875 12.703125 34.078125 12.703125 
Q 39.546875 12.703125 42.578125 16.703125 
Q 45.609375 20.703125 45.609375 27.984375 
Q 45.609375 35.296875 42.578125 39.296875 
Q 39.546875 43.3125 34.078125 43.3125 
z
" id="DejaVuSans-Bold-103"/>
       </defs>
       <use xlink:href="#DejaVuSans-Bold-65"/>
       <use x="77.392578" xlink:href="#DejaVuSans-Bold-108"/>
       <use x="111.669922" xlink:href="#DejaVuSans-Bold-108"/>
       <use x="145.947266" xlink:href="#DejaVuSans-Bold-101"/>
       <use x="213.769531" xlink:href="#DejaVuSans-Bold-103"/>
       <use x="285.351562" xlink:href="#DejaVuSans-Bold-105"/>
       <use x="319.628906" xlink:href="#DejaVuSans-Bold-97"/>
       <use x="387.109375" xlink:href="#DejaVuSans-Bold-110"/>
       <use x="458.300781" xlink:href="#DejaVuSans-Bold-116"/>
      </g>
     </g>
    </g>
    <g id="xtick_17">
     <g id="line2d_17">
      <g>
       <use style="stroke:#000000;stroke-width:0.8;" x="463.229978" xlink:href="#mdfa729ae82" y="268.563235"/>
      </g>
     </g>
     <g id="text_17">
      <!-- JetBlue -->
      <g transform="translate(455.561073 314.206445)rotate(-60)scale(0.1 -0.1)">
       <defs>
        <path d="M 38.375 44.671875 
Q 42.828125 44.671875 45.109375 46.625 
Q 47.40625 48.578125 47.40625 52.390625 
Q 47.40625 56.15625 45.109375 58.125 
Q 42.828125 60.109375 38.375 60.109375 
L 27.984375 60.109375 
L 27.984375 44.671875 
z
M 39.015625 12.796875 
Q 44.671875 12.796875 47.53125 15.1875 
Q 50.390625 17.578125 50.390625 22.40625 
Q 50.390625 27.15625 47.5625 29.515625 
Q 44.734375 31.890625 39.015625 31.890625 
L 27.984375 31.890625 
L 27.984375 12.796875 
z
M 56.5 39.015625 
Q 62.546875 37.25 65.859375 32.515625 
Q 69.1875 27.78125 69.1875 20.90625 
Q 69.1875 10.359375 62.0625 5.171875 
Q 54.9375 0 40.375 0 
L 9.1875 0 
L 9.1875 72.90625 
L 37.40625 72.90625 
Q 52.59375 72.90625 59.40625 68.3125 
Q 66.21875 63.71875 66.21875 53.609375 
Q 66.21875 48.296875 63.71875 44.5625 
Q 61.234375 40.828125 56.5 39.015625 
z
" id="DejaVuSans-Bold-66"/>
       </defs>
       <use xlink:href="#DejaVuSans-Bold-74"/>
       <use x="37.207031" xlink:href="#DejaVuSans-Bold-101"/>
       <use x="105.029297" xlink:href="#DejaVuSans-Bold-116"/>
       <use x="152.832031" xlink:href="#DejaVuSans-Bold-66"/>
       <use x="229.052734" xlink:href="#DejaVuSans-Bold-108"/>
       <use x="263.330078" xlink:href="#DejaVuSans-Bold-117"/>
       <use x="334.521484" xlink:href="#DejaVuSans-Bold-101"/>
      </g>
     </g>
    </g>
    <g id="text_18">
     <!-- Airlines -->
     <g transform="translate(244.190313 345.345277)scale(0.12 -0.12)">
      <use xlink:href="#DejaVuSans-Bold-65"/>
      <use x="77.392578" xlink:href="#DejaVuSans-Bold-105"/>
      <use x="111.669922" xlink:href="#DejaVuSans-Bold-114"/>
      <use x="160.986328" xlink:href="#DejaVuSans-Bold-108"/>
      <use x="195.263672" xlink:href="#DejaVuSans-Bold-105"/>
      <use x="229.541016" xlink:href="#DejaVuSans-Bold-110"/>
      <use x="300.732422" xlink:href="#DejaVuSans-Bold-101"/>
      <use x="368.554688" xlink:href="#DejaVuSans-Bold-115"/>
     </g>
    </g>
   </g>
   <g id="matplotlib.axis_2">
    <g id="ytick_1">
     <g id="line2d_18">
      <defs>
       <path d="M 0 0 
L -3.5 0 
" id="mdec04b7cd5" style="stroke:#000000;stroke-width:0.8;"/>
      </defs>
      <g>
       <use style="stroke:#000000;stroke-width:0.8;" x="46.55" xlink:href="#mdec04b7cd5" y="257.909144"/>
      </g>
     </g>
     <g id="text_19">
      <!-- −6 -->
      <g transform="translate(24.807813 261.708363)scale(0.1 -0.1)">
       <defs>
        <path d="M 10.59375 35.5 
L 73.1875 35.5 
L 73.1875 27.203125 
L 10.59375 27.203125 
z
" id="DejaVuSans-8722"/>
        <path d="M 33.015625 40.375 
Q 26.375 40.375 22.484375 35.828125 
Q 18.609375 31.296875 18.609375 23.390625 
Q 18.609375 15.53125 22.484375 10.953125 
Q 26.375 6.390625 33.015625 6.390625 
Q 39.65625 6.390625 43.53125 10.953125 
Q 47.40625 15.53125 47.40625 23.390625 
Q 47.40625 31.296875 43.53125 35.828125 
Q 39.65625 40.375 33.015625 40.375 
z
M 52.59375 71.296875 
L 52.59375 62.3125 
Q 48.875 64.0625 45.09375 64.984375 
Q 41.3125 65.921875 37.59375 65.921875 
Q 27.828125 65.921875 22.671875 59.328125 
Q 17.53125 52.734375 16.796875 39.40625 
Q 19.671875 43.65625 24.015625 45.921875 
Q 28.375 48.1875 33.59375 48.1875 
Q 44.578125 48.1875 50.953125 41.515625 
Q 57.328125 34.859375 57.328125 23.390625 
Q 57.328125 12.15625 50.6875 5.359375 
Q 44.046875 -1.421875 33.015625 -1.421875 
Q 20.359375 -1.421875 13.671875 8.265625 
Q 6.984375 17.96875 6.984375 36.375 
Q 6.984375 53.65625 15.1875 63.9375 
Q 23.390625 74.21875 37.203125 74.21875 
Q 40.921875 74.21875 44.703125 73.484375 
Q 48.484375 72.75 52.59375 71.296875 
z
" id="DejaVuSans-54"/>
       </defs>
       <use xlink:href="#DejaVuSans-8722"/>
       <use x="83.789062" xlink:href="#DejaVuSans-54"/>
      </g>
     </g>
    </g>
    <g id="ytick_2">
     <g id="line2d_19">
      <g>
       <use style="stroke:#000000;stroke-width:0.8;" x="46.55" xlink:href="#mdec04b7cd5" y="231.504954"/>
      </g>
     </g>
     <g id="text_20">
      <!-- −4 -->
      <g transform="translate(24.807813 235.304172)scale(0.1 -0.1)">
       <defs>
        <path d="M 37.796875 64.3125 
L 12.890625 25.390625 
L 37.796875 25.390625 
z
M 35.203125 72.90625 
L 47.609375 72.90625 
L 47.609375 25.390625 
L 58.015625 25.390625 
L 58.015625 17.1875 
L 47.609375 17.1875 
L 47.609375 0 
L 37.796875 0 
L 37.796875 17.1875 
L 4.890625 17.1875 
L 4.890625 26.703125 
z
" id="DejaVuSans-52"/>
       </defs>
       <use xlink:href="#DejaVuSans-8722"/>
       <use x="83.789062" xlink:href="#DejaVuSans-52"/>
      </g>
     </g>
    </g>
    <g id="ytick_3">
     <g id="line2d_20">
      <g>
       <use style="stroke:#000000;stroke-width:0.8;" x="46.55" xlink:href="#mdec04b7cd5" y="205.100763"/>
      </g>
     </g>
     <g id="text_21">
      <!-- −2 -->
      <g transform="translate(24.807813 208.899982)scale(0.1 -0.1)">
       <defs>
        <path d="M 19.1875 8.296875 
L 53.609375 8.296875 
L 53.609375 0 
L 7.328125 0 
L 7.328125 8.296875 
Q 12.9375 14.109375 22.625 23.890625 
Q 32.328125 33.6875 34.8125 36.53125 
Q 39.546875 41.84375 41.421875 45.53125 
Q 43.3125 49.21875 43.3125 52.78125 
Q 43.3125 58.59375 39.234375 62.25 
Q 35.15625 65.921875 28.609375 65.921875 
Q 23.96875 65.921875 18.8125 64.3125 
Q 13.671875 62.703125 7.8125 59.421875 
L 7.8125 69.390625 
Q 13.765625 71.78125 18.9375 73 
Q 24.125 74.21875 28.421875 74.21875 
Q 39.75 74.21875 46.484375 68.546875 
Q 53.21875 62.890625 53.21875 53.421875 
Q 53.21875 48.921875 51.53125 44.890625 
Q 49.859375 40.875 45.40625 35.40625 
Q 44.1875 33.984375 37.640625 27.21875 
Q 31.109375 20.453125 19.1875 8.296875 
z
" id="DejaVuSans-50"/>
       </defs>
       <use xlink:href="#DejaVuSans-8722"/>
       <use x="83.789062" xlink:href="#DejaVuSans-50"/>
      </g>
     </g>
    </g>
    <g id="ytick_4">
     <g id="line2d_21">
      <g>
       <use style="stroke:#000000;stroke-width:0.8;" x="46.55" xlink:href="#mdec04b7cd5" y="178.696572"/>
      </g>
     </g>
     <g id="text_22">
      <!-- 0 -->
      <g transform="translate(33.1875 182.495791)scale(0.1 -0.1)">
       <defs>
        <path d="M 31.78125 66.40625 
Q 24.171875 66.40625 20.328125 58.90625 
Q 16.5 51.421875 16.5 36.375 
Q 16.5 21.390625 20.328125 13.890625 
Q 24.171875 6.390625 31.78125 6.390625 
Q 39.453125 6.390625 43.28125 13.890625 
Q 47.125 21.390625 47.125 36.375 
Q 47.125 51.421875 43.28125 58.90625 
Q 39.453125 66.40625 31.78125 66.40625 
z
M 31.78125 74.21875 
Q 44.046875 74.21875 50.515625 64.515625 
Q 56.984375 54.828125 56.984375 36.375 
Q 56.984375 17.96875 50.515625 8.265625 
Q 44.046875 -1.421875 31.78125 -1.421875 
Q 19.53125 -1.421875 13.0625 8.265625 
Q 6.59375 17.96875 6.59375 36.375 
Q 6.59375 54.828125 13.0625 64.515625 
Q 19.53125 74.21875 31.78125 74.21875 
z
" id="DejaVuSans-48"/>
       </defs>
       <use xlink:href="#DejaVuSans-48"/>
      </g>
     </g>
    </g>
    <g id="ytick_5">
     <g id="line2d_22">
      <g>
       <use style="stroke:#000000;stroke-width:0.8;" x="46.55" xlink:href="#mdec04b7cd5" y="152.292381"/>
      </g>
     </g>
     <g id="text_23">
      <!-- 2 -->
      <g transform="translate(33.1875 156.0916)scale(0.1 -0.1)">
       <use xlink:href="#DejaVuSans-50"/>
      </g>
     </g>
    </g>
    <g id="ytick_6">
     <g id="line2d_23">
      <g>
       <use style="stroke:#000000;stroke-width:0.8;" x="46.55" xlink:href="#mdec04b7cd5" y="125.888191"/>
      </g>
     </g>
     <g id="text_24">
      <!-- 4 -->
      <g transform="translate(33.1875 129.687409)scale(0.1 -0.1)">
       <use xlink:href="#DejaVuSans-52"/>
      </g>
     </g>
    </g>
    <g id="ytick_7">
     <g id="line2d_24">
      <g>
       <use style="stroke:#000000;stroke-width:0.8;" x="46.55" xlink:href="#mdec04b7cd5" y="99.484"/>
      </g>
     </g>
     <g id="text_25">
      <!-- 6 -->
      <g transform="translate(33.1875 103.283219)scale(0.1 -0.1)">
       <use xlink:href="#DejaVuSans-54"/>
      </g>
     </g>
    </g>
    <g id="ytick_8">
     <g id="line2d_25">
      <g>
       <use style="stroke:#000000;stroke-width:0.8;" x="46.55" xlink:href="#mdec04b7cd5" y="73.079809"/>
      </g>
     </g>
     <g id="text_26">
      <!-- 8 -->
      <g transform="translate(33.1875 76.879028)scale(0.1 -0.1)">
       <defs>
        <path d="M 31.78125 34.625 
Q 24.75 34.625 20.71875 30.859375 
Q 16.703125 27.09375 16.703125 20.515625 
Q 16.703125 13.921875 20.71875 10.15625 
Q 24.75 6.390625 31.78125 6.390625 
Q 38.8125 6.390625 42.859375 10.171875 
Q 46.921875 13.96875 46.921875 20.515625 
Q 46.921875 27.09375 42.890625 30.859375 
Q 38.875 34.625 31.78125 34.625 
z
M 21.921875 38.8125 
Q 15.578125 40.375 12.03125 44.71875 
Q 8.5 49.078125 8.5 55.328125 
Q 8.5 64.0625 14.71875 69.140625 
Q 20.953125 74.21875 31.78125 74.21875 
Q 42.671875 74.21875 48.875 69.140625 
Q 55.078125 64.0625 55.078125 55.328125 
Q 55.078125 49.078125 51.53125 44.71875 
Q 48 40.375 41.703125 38.8125 
Q 48.828125 37.15625 52.796875 32.3125 
Q 56.78125 27.484375 56.78125 20.515625 
Q 56.78125 9.90625 50.3125 4.234375 
Q 43.84375 -1.421875 31.78125 -1.421875 
Q 19.734375 -1.421875 13.25 4.234375 
Q 6.78125 9.90625 6.78125 20.515625 
Q 6.78125 27.484375 10.78125 32.3125 
Q 14.796875 37.15625 21.921875 38.8125 
z
M 18.3125 54.390625 
Q 18.3125 48.734375 21.84375 45.5625 
Q 25.390625 42.390625 31.78125 42.390625 
Q 38.140625 42.390625 41.71875 45.5625 
Q 45.3125 48.734375 45.3125 54.390625 
Q 45.3125 60.0625 41.71875 63.234375 
Q 38.140625 66.40625 31.78125 66.40625 
Q 25.390625 66.40625 21.84375 63.234375 
Q 18.3125 60.0625 18.3125 54.390625 
z
" id="DejaVuSans-56"/>
       </defs>
       <use xlink:href="#DejaVuSans-56"/>
      </g>
     </g>
    </g>
    <g id="text_27">
     <!-- Difference(in %) -->
     <g transform="translate(18.520156 210.65154)rotate(-90)scale(0.11 -0.11)">
      <defs>
       <path d="M 44.390625 75.984375 
L 44.390625 64.5 
L 34.71875 64.5 
Q 31 64.5 29.53125 63.15625 
Q 28.078125 61.8125 28.078125 58.5 
L 28.078125 54.6875 
L 43.015625 54.6875 
L 43.015625 42.1875 
L 28.078125 42.1875 
L 28.078125 0 
L 10.59375 0 
L 10.59375 42.1875 
L 1.90625 42.1875 
L 1.90625 54.6875 
L 10.59375 54.6875 
L 10.59375 58.5 
Q 10.59375 67.4375 15.578125 71.703125 
Q 20.5625 75.984375 31 75.984375 
z
" id="DejaVuSans-Bold-102"/>
       <path d="M 37.703125 -13.1875 
L 23.1875 -13.1875 
Q 15.71875 -1.125 12.15625 9.734375 
Q 8.59375 20.609375 8.59375 31.296875 
Q 8.59375 42 12.171875 52.953125 
Q 15.765625 63.921875 23.1875 75.875 
L 37.703125 75.875 
Q 31.453125 64.3125 28.328125 53.25 
Q 25.203125 42.1875 25.203125 31.390625 
Q 25.203125 20.609375 28.296875 9.515625 
Q 31.390625 -1.5625 37.703125 -13.1875 
z
" id="DejaVuSans-Bold-40"/>
       <path id="DejaVuSans-Bold-32"/>
       <path d="M 77.484375 30.078125 
Q 74.03125 30.078125 72.125 27.078125 
Q 70.21875 24.078125 70.21875 18.5 
Q 70.21875 12.890625 72.09375 9.890625 
Q 73.96875 6.890625 77.484375 6.890625 
Q 81 6.890625 82.859375 9.890625 
Q 84.71875 12.890625 84.71875 18.5 
Q 84.71875 24.078125 82.828125 27.078125 
Q 80.953125 30.078125 77.484375 30.078125 
z
M 77.484375 38.28125 
Q 86.578125 38.28125 91.796875 33 
Q 97.015625 27.734375 97.015625 18.5 
Q 97.015625 9.28125 91.796875 3.921875 
Q 86.578125 -1.421875 77.484375 -1.421875 
Q 68.40625 -1.421875 63.15625 3.921875 
Q 57.90625 9.28125 57.90625 18.5 
Q 57.90625 27.6875 63.15625 32.984375 
Q 68.40625 38.28125 77.484375 38.28125 
z
M 32.71875 -1.421875 
L 21.921875 -1.421875 
L 67.484375 74.21875 
L 78.328125 74.21875 
z
M 22.703125 74.21875 
Q 31.78125 74.21875 36.984375 68.921875 
Q 42.1875 63.625 42.1875 54.390625 
Q 42.1875 45.171875 36.984375 39.84375 
Q 31.78125 34.515625 22.703125 34.515625 
Q 13.625 34.515625 8.421875 39.84375 
Q 3.21875 45.171875 3.21875 54.390625 
Q 3.21875 63.625 8.421875 68.921875 
Q 13.625 74.21875 22.703125 74.21875 
z
M 22.703125 66.015625 
Q 19.1875 66.015625 17.28125 62.984375 
Q 15.375 59.96875 15.375 54.390625 
Q 15.375 48.78125 17.28125 45.71875 
Q 19.1875 42.671875 22.703125 42.671875 
Q 26.21875 42.671875 28.09375 45.71875 
Q 29.984375 48.78125 29.984375 54.390625 
Q 29.984375 59.96875 28.078125 62.984375 
Q 26.171875 66.015625 22.703125 66.015625 
z
" id="DejaVuSans-Bold-37"/>
       <path d="M 8.015625 -13.1875 
Q 14.265625 -1.5625 17.390625 9.515625 
Q 20.515625 20.609375 20.515625 31.390625 
Q 20.515625 42.1875 17.390625 53.25 
Q 14.265625 64.3125 8.015625 75.875 
L 22.515625 75.875 
Q 29.9375 63.921875 33.515625 52.953125 
Q 37.109375 42 37.109375 31.296875 
Q 37.109375 20.609375 33.546875 9.734375 
Q 29.984375 -1.125 22.515625 -13.1875 
z
" id="DejaVuSans-Bold-41"/>
      </defs>
      <use xlink:href="#DejaVuSans-Bold-68"/>
      <use x="83.007812" xlink:href="#DejaVuSans-Bold-105"/>
      <use x="117.285156" xlink:href="#DejaVuSans-Bold-102"/>
      <use x="160.791016" xlink:href="#DejaVuSans-Bold-102"/>
      <use x="204.296875" xlink:href="#DejaVuSans-Bold-101"/>
      <use x="272.119141" xlink:href="#DejaVuSans-Bold-114"/>
      <use x="321.435547" xlink:href="#DejaVuSans-Bold-101"/>
      <use x="389.257812" xlink:href="#DejaVuSans-Bold-110"/>
      <use x="460.449219" xlink:href="#DejaVuSans-Bold-99"/>
      <use x="519.726562" xlink:href="#DejaVuSans-Bold-101"/>
      <use x="587.548828" xlink:href="#DejaVuSans-Bold-40"/>
      <use x="633.251953" xlink:href="#DejaVuSans-Bold-105"/>
      <use x="667.529297" xlink:href="#DejaVuSans-Bold-110"/>
      <use x="738.720703" xlink:href="#DejaVuSans-Bold-32"/>
      <use x="773.535156" xlink:href="#DejaVuSans-Bold-37"/>
      <use x="873.730469" xlink:href="#DejaVuSans-Bold-41"/>
     </g>
    </g>
   </g>
   <g id="line2d_26">
    <path clip-path="url(#pca8d347c2d)" d="M 46.55 178.696572 
L 493.2 178.696572 
" style="fill:none;stroke:#000000;stroke-linecap:square;stroke-width:0.5;"/>
   </g>
   <g id="patch_20">
    <path d="M 46.55 268.563235 
L 46.55 51.6 
" style="fill:none;stroke:#000000;stroke-linecap:square;stroke-linejoin:miter;stroke-width:0.8;"/>
   </g>
   <g id="patch_21">
    <path d="M 493.2 268.563235 
L 493.2 51.6 
" style="fill:none;stroke:#000000;stroke-linecap:square;stroke-linejoin:miter;stroke-width:0.8;"/>
   </g>
   <g id="patch_22">
    <path d="M 46.55 268.563235 
L 493.2 268.563235 
" style="fill:none;stroke:#000000;stroke-linecap:square;stroke-linejoin:miter;stroke-width:0.8;"/>
   </g>
   <g id="patch_23">
    <path d="M 46.55 51.6 
L 493.2 51.6 
" style="fill:none;stroke:#000000;stroke-linecap:square;stroke-linejoin:miter;stroke-width:0.8;"/>
   </g>
   <g id="text_28">
    <!-- Difference from Mean Percent Delay by Airlines -->
    <g transform="translate(108.821875 45.6)scale(0.12 -0.12)">
     <use xlink:href="#DejaVuSans-Bold-68"/>
     <use x="83.007812" xlink:href="#DejaVuSans-Bold-105"/>
     <use x="117.285156" xlink:href="#DejaVuSans-Bold-102"/>
     <use x="160.791016" xlink:href="#DejaVuSans-Bold-102"/>
     <use x="204.296875" xlink:href="#DejaVuSans-Bold-101"/>
     <use x="272.119141" xlink:href="#DejaVuSans-Bold-114"/>
     <use x="321.435547" xlink:href="#DejaVuSans-Bold-101"/>
     <use x="389.257812" xlink:href="#DejaVuSans-Bold-110"/>
     <use x="460.449219" xlink:href="#DejaVuSans-Bold-99"/>
     <use x="519.726562" xlink:href="#DejaVuSans-Bold-101"/>
     <use x="587.548828" xlink:href="#DejaVuSans-Bold-32"/>
     <use x="622.363281" xlink:href="#DejaVuSans-Bold-102"/>
     <use x="665.869141" xlink:href="#DejaVuSans-Bold-114"/>
     <use x="715.185547" xlink:href="#DejaVuSans-Bold-111"/>
     <use x="783.886719" xlink:href="#DejaVuSans-Bold-109"/>
     <use x="888.085938" xlink:href="#DejaVuSans-Bold-32"/>
     <use x="922.900391" xlink:href="#DejaVuSans-Bold-77"/>
     <use x="1022.412109" xlink:href="#DejaVuSans-Bold-101"/>
     <use x="1090.234375" xlink:href="#DejaVuSans-Bold-97"/>
     <use x="1157.714844" xlink:href="#DejaVuSans-Bold-110"/>
     <use x="1228.90625" xlink:href="#DejaVuSans-Bold-32"/>
     <use x="1263.720703" xlink:href="#DejaVuSans-Bold-80"/>
     <use x="1337.011719" xlink:href="#DejaVuSans-Bold-101"/>
     <use x="1404.833984" xlink:href="#DejaVuSans-Bold-114"/>
     <use x="1454.150391" xlink:href="#DejaVuSans-Bold-99"/>
     <use x="1513.427734" xlink:href="#DejaVuSans-Bold-101"/>
     <use x="1581.25" xlink:href="#DejaVuSans-Bold-110"/>
     <use x="1652.441406" xlink:href="#DejaVuSans-Bold-116"/>
     <use x="1700.244141" xlink:href="#DejaVuSans-Bold-32"/>
     <use x="1735.058594" xlink:href="#DejaVuSans-Bold-68"/>
     <use x="1818.066406" xlink:href="#DejaVuSans-Bold-101"/>
     <use x="1885.888672" xlink:href="#DejaVuSans-Bold-108"/>
     <use x="1920.166016" xlink:href="#DejaVuSans-Bold-97"/>
     <use x="1984.521484" xlink:href="#DejaVuSans-Bold-121"/>
     <use x="2049.707031" xlink:href="#DejaVuSans-Bold-32"/>
     <use x="2084.521484" xlink:href="#DejaVuSans-Bold-98"/>
     <use x="2156.103516" xlink:href="#DejaVuSans-Bold-121"/>
     <use x="2221.289062" xlink:href="#DejaVuSans-Bold-32"/>
     <use x="2256.103516" xlink:href="#DejaVuSans-Bold-65"/>
     <use x="2333.496094" xlink:href="#DejaVuSans-Bold-105"/>
     <use x="2367.773438" xlink:href="#DejaVuSans-Bold-114"/>
     <use x="2417.089844" xlink:href="#DejaVuSans-Bold-108"/>
     <use x="2451.367188" xlink:href="#DejaVuSans-Bold-105"/>
     <use x="2485.644531" xlink:href="#DejaVuSans-Bold-110"/>
     <use x="2556.835938" xlink:href="#DejaVuSans-Bold-101"/>
     <use x="2624.658203" xlink:href="#DejaVuSans-Bold-115"/>
    </g>
   </g>
  </g>
  <g id="text_29">
   <!-- Hawaiian, Delta, and Southwest have the least flight delay. -->
   <g transform="translate(17.363281 17.837812)scale(0.14 -0.14)">
    <defs>
     <path d="M 10.203125 18.890625 
L 27.78125 18.890625 
L 27.78125 4 
L 15.71875 -14.203125 
L 5.328125 -14.203125 
L 10.203125 4 
z
" id="DejaVuSans-Bold-44"/>
     <path d="M 10.203125 18.890625 
L 27.78125 18.890625 
L 27.78125 0 
L 10.203125 0 
z
" id="DejaVuSans-Bold-46"/>
    </defs>
    <use xlink:href="#DejaVuSans-Bold-72"/>
    <use x="83.691406" xlink:href="#DejaVuSans-Bold-97"/>
    <use x="151.171875" xlink:href="#DejaVuSans-Bold-119"/>
    <use x="243.554688" xlink:href="#DejaVuSans-Bold-97"/>
    <use x="311.035156" xlink:href="#DejaVuSans-Bold-105"/>
    <use x="345.3125" xlink:href="#DejaVuSans-Bold-105"/>
    <use x="379.589844" xlink:href="#DejaVuSans-Bold-97"/>
    <use x="447.070312" xlink:href="#DejaVuSans-Bold-110"/>
    <use x="518.261719" xlink:href="#DejaVuSans-Bold-44"/>
    <use x="556.25" xlink:href="#DejaVuSans-Bold-32"/>
    <use x="591.064453" xlink:href="#DejaVuSans-Bold-68"/>
    <use x="674.072266" xlink:href="#DejaVuSans-Bold-101"/>
    <use x="741.894531" xlink:href="#DejaVuSans-Bold-108"/>
    <use x="776.171875" xlink:href="#DejaVuSans-Bold-116"/>
    <use x="823.974609" xlink:href="#DejaVuSans-Bold-97"/>
    <use x="891.455078" xlink:href="#DejaVuSans-Bold-44"/>
    <use x="929.443359" xlink:href="#DejaVuSans-Bold-32"/>
    <use x="964.257812" xlink:href="#DejaVuSans-Bold-97"/>
    <use x="1031.738281" xlink:href="#DejaVuSans-Bold-110"/>
    <use x="1102.929688" xlink:href="#DejaVuSans-Bold-100"/>
    <use x="1174.511719" xlink:href="#DejaVuSans-Bold-32"/>
    <use x="1209.326172" xlink:href="#DejaVuSans-Bold-83"/>
    <use x="1281.347656" xlink:href="#DejaVuSans-Bold-111"/>
    <use x="1350.048828" xlink:href="#DejaVuSans-Bold-117"/>
    <use x="1421.240234" xlink:href="#DejaVuSans-Bold-116"/>
    <use x="1469.042969" xlink:href="#DejaVuSans-Bold-104"/>
    <use x="1540.234375" xlink:href="#DejaVuSans-Bold-119"/>
    <use x="1632.617188" xlink:href="#DejaVuSans-Bold-101"/>
    <use x="1700.439453" xlink:href="#DejaVuSans-Bold-115"/>
    <use x="1759.960938" xlink:href="#DejaVuSans-Bold-116"/>
    <use x="1807.763672" xlink:href="#DejaVuSans-Bold-32"/>
    <use x="1842.578125" xlink:href="#DejaVuSans-Bold-104"/>
    <use x="1913.769531" xlink:href="#DejaVuSans-Bold-97"/>
    <use x="1981.25" xlink:href="#DejaVuSans-Bold-118"/>
    <use x="2046.435547" xlink:href="#DejaVuSans-Bold-101"/>
    <use x="2114.257812" xlink:href="#DejaVuSans-Bold-32"/>
    <use x="2149.072266" xlink:href="#DejaVuSans-Bold-116"/>
    <use x="2196.875" xlink:href="#DejaVuSans-Bold-104"/>
    <use x="2268.066406" xlink:href="#DejaVuSans-Bold-101"/>
    <use x="2335.888672" xlink:href="#DejaVuSans-Bold-32"/>
    <use x="2370.703125" xlink:href="#DejaVuSans-Bold-108"/>
    <use x="2404.980469" xlink:href="#DejaVuSans-Bold-101"/>
    <use x="2472.802734" xlink:href="#DejaVuSans-Bold-97"/>
    <use x="2540.283203" xlink:href="#DejaVuSans-Bold-115"/>
    <use x="2599.804688" xlink:href="#DejaVuSans-Bold-116"/>
    <use x="2647.607422" xlink:href="#DejaVuSans-Bold-32"/>
    <use x="2682.421875" xlink:href="#DejaVuSans-Bold-102"/>
    <use x="2725.927734" xlink:href="#DejaVuSans-Bold-108"/>
    <use x="2760.205078" xlink:href="#DejaVuSans-Bold-105"/>
    <use x="2794.482422" xlink:href="#DejaVuSans-Bold-103"/>
    <use x="2866.064453" xlink:href="#DejaVuSans-Bold-104"/>
    <use x="2937.255859" xlink:href="#DejaVuSans-Bold-116"/>
    <use x="2985.058594" xlink:href="#DejaVuSans-Bold-32"/>
    <use x="3019.873047" xlink:href="#DejaVuSans-Bold-100"/>
    <use x="3091.455078" xlink:href="#DejaVuSans-Bold-101"/>
    <use x="3159.277344" xlink:href="#DejaVuSans-Bold-108"/>
    <use x="3193.554688" xlink:href="#DejaVuSans-Bold-97"/>
    <use x="3257.910156" xlink:href="#DejaVuSans-Bold-121"/>
    <use x="3313.970703" xlink:href="#DejaVuSans-Bold-46"/>
   </g>
  </g>
 </g>
 <defs>
  <clipPath id="pca8d347c2d">
   <rect height="216.963235" width="446.65" x="46.55" y="51.6"/>
  </clipPath>
 </defs>
</svg>
